# xmcd
#
# Track frame offsets: 
#        150
#        12040
#        24060
#        36468
#        49578
#        62613
#        74548
#        85203
#        97433
#        111415
#
# Disc length: 1673 seconds
#
# Revision: 2
# Processed by: cddbd v1.4PL0 Copyright (c) Steve Scherf et al.
# Submitted via: ExactAudioCopy v0.90b3
#
DISCID=8306870a
DTITLE=Tommy Overstreet - Solid Gold Hits
DYEAR=1900
DGENRE=Country
TTITLE0=Heaven Is My Woman's Love
TTITLE1=Gwen (Congratulations)
TTITLE2=(Jeannie Marie) You Were A Lady
TTITLE3=If I Miss You Again Tonight
TTITLE4=Send Me No Roses
TTITLE5=I'll Never Break These Chains
TTITLE6=Ann (Don't Go Runnin')
TTITLE7=That's When My Woman Begins
TTITLE8=Dream Maker
TTITLE9=Heart Of Dixie
EXTD=
EXTT0=
EXTT1=
EXTT2=
EXTT3=
EXTT4=
EXTT5=
EXTT6=
EXTT7=
EXTT8=
EXTT9=
PLAYORDER=
